<svg width="1047" height="982" viewBox="0 0 1047 982" fill="none" xmlns="http://www.w3.org/2000/svg">
<g id="bat2">
<g id="Ellipse 1" filter="url(#filter0_f_52_136)">
<ellipse cx="715.5" cy="669.5" rx="215.5" ry="192.5" fill="#1AC3CF"/>
</g>
<path id="right-hand" d="M679.414 477.427C687.036 468.073 711.46 459.961 722.719 457.074L728.349 567.935L708.428 639.389L699.334 669.269C698.901 674.899 697.948 687.111 697.602 690.922C697.169 695.685 683.311 723.834 675.516 732.495C667.721 741.156 654.73 767.139 651.265 777.965C648.494 786.626 646.646 794.854 646.069 797.886L644.77 807.413C647.945 812.032 654.73 822.05 656.462 825.168C658.194 828.286 658.627 838.881 658.627 843.789C660.215 847.542 663.391 855.568 663.391 857.647C663.391 859.726 658.772 864.287 656.462 866.308V871.938C656.462 872.977 649.822 875.835 646.502 877.134L636.975 882.764L630.046 879.3C627.303 879.155 620.432 878.26 614.889 875.835C609.346 873.41 601.32 862.699 598 857.647L605.362 803.082C606.517 796.009 609.346 780.564 611.425 775.367C614.023 768.871 624.416 696.552 628.314 681.395C631.432 669.269 646.646 641.121 653.864 628.562C655.307 621.778 658.541 605.697 659.926 595.65C661.312 585.604 665.123 564.904 666.855 555.81C665.845 551.479 663.651 539.44 662.958 525.929C662.092 509.04 669.887 489.12 679.414 477.427Z" fill="black" stroke="#132129" stroke-width="0.866104"/>
<path id="legs" d="M826.552 953.785C821.009 938.541 797.537 885.362 787.577 860.678L774.153 981.5H706.163C703.276 972.262 696.117 945.643 690.574 913.078C683.645 872.371 687.109 852.451 687.975 830.798C688.668 813.476 700.967 728.309 707.03 687.891H709.628L859.031 678.364C859.753 684.859 861.456 699.41 862.495 705.646C863.795 713.441 888.479 809.578 894.108 830.798C899.738 852.017 909.265 922.172 910.131 935.597C910.824 946.336 916.194 970.674 918.792 981.5H840.41C838.1 978.613 832.095 969.028 826.552 953.785Z" fill="black" stroke="black" stroke-width="0.866104"/>
<g id="body-&#38;-highlights">
<g id="Vector 19">
<mask id="path-4-outside-1_52_136" maskUnits="userSpaceOnUse" x="717.987" y="326.623" width="203" height="143" fill="black">
<rect fill="white" x="717.987" y="326.623" width="203" height="143"/>
<path d="M837.478 367.865C835.399 361.283 832.281 340.294 830.982 330.623L757.796 388.219L762.127 428.492C758.951 430.513 751.127 435.335 745.238 438.453C739.348 441.571 726.616 451.877 720.987 456.641L731.813 467.467H775.551L915.427 434.555L844.84 392.116C843.252 386.775 839.556 374.447 837.478 367.865Z"/>
</mask>
<path d="M837.478 367.865C835.399 361.283 832.281 340.294 830.982 330.623L757.796 388.219L762.127 428.492C758.951 430.513 751.127 435.335 745.238 438.453C739.348 441.571 726.616 451.877 720.987 456.641L731.813 467.467H775.551L915.427 434.555L844.84 392.116C843.252 386.775 839.556 374.447 837.478 367.865Z" fill="black"/>
<path d="M837.478 367.865C835.399 361.283 832.281 340.294 830.982 330.623L757.796 388.219L762.127 428.492C758.951 430.513 751.127 435.335 745.238 438.453C739.348 441.571 726.616 451.877 720.987 456.641L731.813 467.467H775.551L915.427 434.555L844.84 392.116C843.252 386.775 839.556 374.447 837.478 367.865Z" stroke="black" stroke-width="4" mask="url(#path-4-outside-1_52_136)"/>
</g>
<path id="Vector 14" d="M765.158 709.543C731.207 711.968 712.614 703.625 707.562 699.15C707.149 698.803 706.235 696.985 705.83 696.119C705.83 681.972 705.57 649.869 704.531 634.625C703.492 619.382 695.437 601.713 691.539 594.784L689.807 561.006C686.343 555.521 679.414 542.385 679.414 533.724C679.414 525.063 684.322 504.998 686.776 496.048L722.719 455.775H783.346L877.319 440.185L910.664 431.524L914.128 564.904C910.664 572.987 902.522 591.58 897.672 601.28C892.822 610.98 874.865 628.995 866.492 636.79C864.327 642.131 859.564 654.632 857.831 661.907C856.099 669.183 857.11 677.93 857.831 681.395C841.087 689.767 799.109 707.118 765.158 709.543Z" fill="black"/>
<path id="Vector 15" d="M882.082 438.886L792.007 452.743L786.811 455.342C783.635 458.517 776.331 466.341 772.52 472.231C767.756 479.593 764.292 491.285 764.292 510.339C764.292 529.394 770.788 527.228 781.614 538.921C792.44 550.613 810.629 552.345 830.116 548.881C845.706 546.109 877.319 517.413 891.176 503.411H894.641L882.082 438.886Z" fill="#1A2228"/>
<path id="Vector 17" d="M785.078 561.873C780.228 562.912 771.509 569.523 767.756 572.699C771.076 574.864 779.189 579.628 785.078 581.36C792.44 583.525 804.999 597.816 809.762 603.879C814.526 609.941 813.66 611.674 814.526 622.067C815.219 630.381 810.484 679.518 808.03 703.048C808.896 712.142 811.062 729.81 812.794 727.732C814.526 725.653 820.156 723.69 822.754 722.968C822.898 742.167 824.14 783.769 827.951 796.587C832.714 812.61 847.871 855.049 852.202 873.67C856.532 892.291 867.611 939.437 886.413 944.258C903.302 948.588 902.869 927.802 900.27 895.323C897.473 860.355 882.948 819.106 879.484 805.681C876.019 792.256 875.153 787.926 873.421 769.738C871.689 751.549 860.43 721.669 858.264 712.575C856.099 703.481 853.068 677.931 853.068 662.341C853.068 649.869 859.419 631.738 862.595 624.232C861.873 624.521 859.996 625.358 858.264 626.397C856.532 627.437 854.078 632.893 853.068 635.491C853.934 632.604 856.186 625.618 858.264 620.768C860.863 614.705 869.091 611.241 874.287 599.115C878.444 589.415 876.019 561.006 874.287 548.015C864.038 552.634 841.202 562.306 831.848 564.038C820.156 566.203 791.141 560.573 785.078 561.873Z" fill="#1A2228" stroke="black" stroke-width="0.866104"/>
<path id="Vector 21" d="M807.164 447.98L785.945 453.176C790.853 445.526 800.928 429.791 801.968 428.059C803.007 426.327 814.815 395.003 820.589 379.557V358.338L818.857 351.409L811.928 347.078L829.25 335.819L844.84 393.415L903.735 428.059L898.971 433.689L837.911 443.216C833.003 442.494 825.959 441.137 823.187 438.019C820.416 434.901 820.3 419.687 820.589 412.469L807.164 447.98Z" fill="#1A2228"/>
<path id="logo" d="M755.198 489.12L747.836 513.371C746.826 512.938 744.025 511.725 740.907 510.339C737.01 508.607 732.679 503.41 730.514 500.379C728.349 497.348 728.349 491.718 726.616 489.986C725.231 488.6 710.16 486.233 702.799 485.222C703.232 485.944 704.964 488.687 708.428 493.883C712.759 500.379 713.192 515.969 713.192 527.228C724.451 530.26 727.05 532.425 737.876 542.818C746.537 551.133 750.723 570.245 751.733 578.762C752.888 574.72 756.151 564.817 759.961 557.542C773.473 534.33 802.545 526.507 815.392 525.496C815.681 524.197 817.211 519.52 821.022 511.205C825.785 500.812 842.241 486.088 846.139 483.057C849.257 480.632 862.451 473.674 868.658 470.499C864.616 470.787 854.8 471.798 847.871 473.53C840.942 475.262 819.001 481.18 808.896 483.923C805.576 487.676 798.07 496.049 794.606 499.513C791.141 502.977 776.129 510.195 769.056 513.371L769.922 489.986C767.468 493.883 762.04 501.592 759.961 501.245C757.883 500.899 755.92 493.017 755.198 489.12Z" fill="#54DAFF"/>
<path id="Vector 24" d="M909.888 431.091L896.463 435.421L839.733 396.88C836.125 385.476 828.474 360.417 826.742 351.409C825.01 342.402 824.197 330.045 824.919 324.993L830.116 322.395C829.972 327.447 831.415 337.292 831.415 341.449C831.415 346.645 841.899 388.652 845.796 393.415C848.914 397.226 889.823 420.12 909.888 431.091Z" fill="white" fill-opacity="0.12"/>
</g>
<g id="head-tracker"><g id="head">
<path id="Vector 20" d="M777.717 414.635C777.024 415.328 761.261 416.078 753.466 416.367C752.311 415.501 749.742 413.249 748.702 411.17C747.403 408.572 746.97 406.407 745.671 402.509C744.632 399.391 741.485 393.993 740.041 391.683C738.886 388.363 736.23 380.857 734.845 377.392C733.112 373.062 730.947 369.597 728.349 366.566C725.75 363.535 723.152 350.11 723.152 347.945C723.152 346.212 718.244 338.273 715.79 334.52C716.079 331.777 716.656 325.253 716.656 321.095V269.562C716.656 261.248 718.677 204.604 719.688 177.322L738.742 271.294C740.474 269.707 745.151 266.011 750.001 263.933C756.064 261.334 766.024 259.169 780.748 257.87C792.527 256.83 798.648 258.88 800.235 260.035L807.164 160C815.392 199.696 832.281 282.034 834.014 293.813C835.746 305.592 834.158 323.261 833.147 330.623L818.857 350.11L818.424 377.392C805.143 389.518 778.41 413.942 777.717 414.635Z" fill="#1A2228" stroke="black" stroke-width="2"/>
<path id="Vector 25" d="M833.147 330.189L825.352 338.417C824.919 337.551 825.352 333.307 825.352 330.189C825.352 326.292 824.919 321.095 825.352 313.3C825.699 307.064 822.032 295.112 820.156 289.916L807.597 164.763C816.114 206.914 833.234 293.38 833.58 302.041C833.927 310.702 834.013 320.951 833.147 330.189Z" fill="white" fill-opacity="0.12"/>
<path id="Vector 26" d="M780.315 262.201C788.976 262.201 796.338 263.933 798.936 264.799L798.503 258.303C793.74 257.726 781.441 256.831 770.355 257.87C759.269 258.909 746.104 265.232 740.907 268.263C742.062 267.83 745.584 266.531 750.434 264.799C756.497 262.634 769.489 262.201 780.315 262.201Z" fill="white" fill-opacity="0.12"/>
<path id="Vector 27" d="M807.164 277.357C812.707 281.861 816.98 289.627 818.424 292.947H819.29V284.719L818.424 266.964L811.495 203.305L807.164 160.433L799.369 259.169V263.066L796.338 269.129C797.637 269.995 801.621 272.853 807.164 277.357Z" fill="black"/>
<path id="Vector 28" d="M786.811 397.746L801.102 353.141L793.307 356.173L783.346 345.346L786.811 331.922L783.346 321.095L779.882 298.144C777.428 297.278 772 295.026 769.922 292.947C767.843 290.868 758.085 285.441 753.466 282.987L740.041 284.719L721.42 297.278L715.79 334.52C716.801 336.108 719.081 339.63 720.121 341.016C721.16 342.402 724.596 356.028 726.184 362.668L732.679 371.329L750.868 414.635H753C760.5 414.635 773.126 413.249 775.551 412.902C777.977 412.556 781.759 408.716 783.346 406.84L786.811 397.746Z" fill="black"/>
<path id="Vector 29" d="M717.955 179.054L730.947 279.09C730.514 279.09 729.042 280.129 726.616 284.286C724.191 288.443 721.276 297.422 720.554 300.309V316.332L716.223 331.489V309.403L714.924 293.813V282.554L717.955 179.054Z" fill="black"/>
<path id="Vector 30" d="M737.876 271.294L731.813 279.089L727.483 257.004L720.121 186.416L737.876 271.294Z" fill="white" fill-opacity="0.12"/>
<g id="eyes">
<path id="left-eye" d="M776.851 337.551C772.693 339.63 764.436 345.635 760.828 348.378C761.982 348.233 764.898 347.771 767.323 347.079C769.749 346.386 776.706 346.501 779.882 346.645L792.007 330.623C788.687 332.066 781.008 335.473 776.851 337.551Z" fill="white"/>
<path id="right-eye" d="M731.38 344.913C728.955 343.528 723.441 341.449 720.987 340.583L731.38 352.708C731.669 352.564 732.506 352.102 733.545 351.409C734.585 350.716 738.309 350.543 740.041 350.543C738.165 349.244 733.805 346.299 731.38 344.913Z" fill="white"/>
</g>
</g>
</g>
<g id="left-hand">
<path id="Vector 11" d="M1031.05 660.175C1028.63 677.843 1016.18 706.223 1010.27 718.204L1007.67 720.369L1013.3 672.3C1014.45 672.012 1018.06 669.529 1023.26 661.907C1028.45 654.285 1032.35 638.234 1033.65 631.16C1033.79 633.47 1033.48 642.506 1031.05 660.175Z" fill="#070B0E" stroke="black" stroke-width="2"/>
<path id="Vector 12" d="M1024.12 721.669C1015.21 737.115 1003.81 761.742 993.81 770.604L975.622 766.171L998.978 723.782C1000.16 723.951 1004.44 723.013 1012.12 717.917C1019.81 712.82 1031.94 698.714 1035.82 692.654C1035.08 694.847 1033.04 706.222 1024.12 721.669Z" fill="#070B0E" stroke="black" stroke-width="2"/>
<g id="Vector 10">
<mask id="path-22-inside-2_52_136" fill="white">
<path d="M909.842 431.523L895.984 436.72L882.56 439.751C881.261 441.195 878.489 447.113 877.796 459.239C877.103 471.364 884.725 490.852 888.622 499.08L901.614 519L912.873 575.73C915.616 582.226 921.448 596.343 922.834 600.847C924.219 605.351 940.156 631.305 947.951 643.719C946.363 653.679 943.447 676.718 944.486 689.189C945.785 704.779 954.013 718.637 957.045 739.424C960.076 760.21 954.013 794.421 950.116 800.051C946.998 804.555 929.185 812.609 920.668 816.074C917.204 822.425 910.188 837.033 909.842 844.655C909.496 852.277 915.183 860.822 918.07 864.143L917.204 873.237C918.503 874.824 922.054 878.347 925.865 879.732C929.676 881.118 933.227 880.31 934.526 879.732C934.382 880.165 934.786 881.291 937.557 882.331C940.329 883.37 945.352 881.898 947.518 881.032C948.239 881.32 950.202 881.984 952.281 882.331C954.36 882.677 956.9 881.609 957.911 881.032C957.766 881.32 958.344 881.724 961.808 881.032C966.139 880.165 971.768 876.268 971.768 878C971.768 879.732 983.894 872.371 986.925 866.741C989.35 862.237 989.957 835.705 989.957 823.003C991.4 819.971 994.72 813.216 996.452 810.444C998.618 806.98 996.886 805.247 998.185 793.122C999.224 783.422 1011.03 708.244 1016.81 671.867C1015.94 667.248 1013.86 656.711 1012.48 651.514C1010.74 645.018 1000.35 617.303 996.452 604.744C992.555 592.186 990.823 567.069 989.957 558.408C989.264 551.479 981.007 531.558 976.965 522.464C977.831 517.556 979.044 505.316 976.965 495.615C974.367 483.49 973.068 481.324 962.241 459.239C953.58 441.57 923.7 433.4 909.842 431.523Z"/>
</mask>
<path d="M909.842 431.523L895.984 436.72L882.56 439.751C881.261 441.195 878.489 447.113 877.796 459.239C877.103 471.364 884.725 490.852 888.622 499.08L901.614 519L912.873 575.73C915.616 582.226 921.448 596.343 922.834 600.847C924.219 605.351 940.156 631.305 947.951 643.719C946.363 653.679 943.447 676.718 944.486 689.189C945.785 704.779 954.013 718.637 957.045 739.424C960.076 760.21 954.013 794.421 950.116 800.051C946.998 804.555 929.185 812.609 920.668 816.074C917.204 822.425 910.188 837.033 909.842 844.655C909.496 852.277 915.183 860.822 918.07 864.143L917.204 873.237C918.503 874.824 922.054 878.347 925.865 879.732C929.676 881.118 933.227 880.31 934.526 879.732C934.382 880.165 934.786 881.291 937.557 882.331C940.329 883.37 945.352 881.898 947.518 881.032C948.239 881.32 950.202 881.984 952.281 882.331C954.36 882.677 956.9 881.609 957.911 881.032C957.766 881.32 958.344 881.724 961.808 881.032C966.139 880.165 971.768 876.268 971.768 878C971.768 879.732 983.894 872.371 986.925 866.741C989.35 862.237 989.957 835.705 989.957 823.003C991.4 819.971 994.72 813.216 996.452 810.444C998.618 806.98 996.886 805.247 998.185 793.122C999.224 783.422 1011.03 708.244 1016.81 671.867C1015.94 667.248 1013.86 656.711 1012.48 651.514C1010.74 645.018 1000.35 617.303 996.452 604.744C992.555 592.186 990.823 567.069 989.957 558.408C989.264 551.479 981.007 531.558 976.965 522.464C977.831 517.556 979.044 505.316 976.965 495.615C974.367 483.49 973.068 481.324 962.241 459.239C953.58 441.57 923.7 433.4 909.842 431.523Z" fill="#1A2228" stroke="black" stroke-width="4" mask="url(#path-22-inside-2_52_136)"/>
</g>
<path id="Vector 13" d="M880.44 454.042L880.783 446.247L880.44 444.515C879.719 448.124 876.976 458.719 878.708 472.23C880.44 485.742 884.338 495.76 886.07 499.08L902.526 544.55C904.547 549.314 909.975 563.604 915.518 582.659C921.061 601.713 938.325 630.15 946.264 641.987C945.254 654.979 943.32 682.867 943.666 690.489C944.099 700.016 954.925 721.669 956.658 746.786C958.043 766.879 952.616 789.225 949.729 797.886C948.285 799.185 944.619 802.389 941.501 804.815C937.603 807.846 921.147 813.043 919.848 815.208C918.809 816.94 911.909 833.252 908.589 841.191L909.022 851.584L916.817 863.277V873.67L928.076 879.733H933.706L937.17 881.032H946.697L964.019 879.733C966.329 878.722 972.507 876.095 978.743 873.67C986.538 870.638 983.94 859.379 983.94 863.277C983.94 867.174 976.578 866.741 972.247 866.741C968.811 866.741 971.624 847.71 973.501 837.963C971.892 846.272 968.423 862.77 967.051 864.143C965.319 865.875 957.091 862.844 956.658 861.544C956.311 860.505 958.823 846.676 960.122 839.892C958.534 845.81 954.752 857.82 952.327 858.513C949.902 859.206 946.697 857.647 945.398 856.781C944.099 853.028 941.501 843.616 941.501 835.994C941.501 828.373 955.647 812.032 962.72 804.815C965.319 794.566 971.122 771.47 973.547 761.076C976.578 748.085 975.279 706.945 974.846 685.292C974.413 663.64 976.578 658.01 977.444 641.987C978.137 629.169 974.557 612.972 972.681 606.477L970.948 616.87C970.255 621.027 966.329 626.974 964.453 629.428C960.844 624.087 952.154 609.595 946.264 594.351C940.375 579.108 931.108 548.159 927.21 534.59C927.354 534.446 928.856 534.244 933.706 534.59C938.556 534.936 955.07 543.395 962.72 547.582C958.534 539.787 947.217 519.173 935.438 499.08C923.659 478.986 893.865 460.682 880.44 454.042Z" fill="black"/>
<path id="Vector 22" d="M1012.43 676.198L1016.33 672.734C1016.33 667.97 1015.72 656.97 1013.3 651.081C1010.27 643.719 997.707 606.477 995.975 599.548C994.243 592.619 991.645 566.203 990.345 559.707C989.306 554.51 981.54 532.425 977.787 522.031V495.182C977.787 487.82 971.291 478.726 969.559 471.797C967.827 464.868 957 450.578 950.072 444.082C944.529 438.885 920.335 433.544 908.932 431.523L893.342 436.287L896.806 437.153C902.58 437.009 917.333 438.193 930.151 444.082C946.174 451.444 954.402 459.239 963.496 475.695C970.772 488.86 972.59 514.381 972.59 525.496C972.735 526.073 973.197 527.748 973.89 529.826C974.582 531.905 975.333 535.889 975.622 537.621C977.498 542.529 981.771 553.644 983.85 558.841C986.448 565.337 990.345 593.052 991.645 603.878C992.684 612.539 996.12 624.232 997.707 628.995C999.584 634.481 1004.29 647.01 1008.1 653.246C1011.91 659.482 1012.58 671.146 1012.43 676.198Z" fill="white" fill-opacity="0.12"/>
</g>
</g>
<defs>
<filter id="filter0_f_52_136" x="0" y="-23" width="1431" height="1385" filterUnits="userSpaceOnUse" color-interpolation-filters="sRGB">
<feFlood flood-opacity="0" result="BackgroundImageFix"/>
<feBlend mode="normal" in="SourceGraphic" in2="BackgroundImageFix" result="shape"/>
<feGaussianBlur stdDeviation="250" result="effect1_foregroundBlur_52_136"/>
</filter>
</defs>
<script type="text/javascript">
//<![CDATA[
  (function() {
    const tracker = document.getElementById('head-tracker');

    const PIVOT_X = 815;
    const PIVOT_Y = 372;
    const MAX_ROTATE = 15;
    const MAX_OFFSET = 10;

    let currentFactor = 0;
    let targetFactor  = 0;
    const EASE = 0.08;

    document.addEventListener('mousemove', function(e) {
      const norm = e.clientY / window.innerHeight;
      targetFactor = (0.5 - norm) * 2; // flipped: top = positive (head back), bottom = negative (head forward)
    });

    // ── Blink system ──────────────────────────────────────────────
    const leftEye  = document.getElementById('left-eye');
    const rightEye = document.getElementById('right-eye');

    // Eye centers for scaleY pivot
    const LEFT_EYE_CY  = 339;
    const RIGHT_EYE_CY = 347;

    function setEyeScale(scaleY) {
      leftEye.setAttribute('transform',
        'translate(0,' + (LEFT_EYE_CY * (1 - scaleY)) + ') scale(1,' + scaleY + ')');
      rightEye.setAttribute('transform',
        'translate(0,' + (RIGHT_EYE_CY * (1 - scaleY)) + ') scale(1,' + scaleY + ')');
    }

    function animateEyelid(from, to, duration, onDone) {
      const start = performance.now();
      function step(now) {
        const t = Math.min((now - start) / duration, 1);
        // ease-in for closing, ease-out for opening
        const eased = to < from
          ? t * t               // ease-in (snap shut)
          : 1 - (1 - t) * (1 - t); // ease-out (drift open)
        setEyeScale(from + (to - from) * eased);
        if (t < 1) requestAnimationFrame(step);
        else if (onDone) onDone();
      }
      requestAnimationFrame(step);
    }

    function doBlink(onDone) {
      animateEyelid(1, 0, 80, function() {       // close fast
        animateEyelid(0, 1, 130, onDone);         // open slower
      });
    }

    function doSlowBlink(onDone) {
      animateEyelid(1, 0, 220, function() {      // close lazy
        setTimeout(function() {
          animateEyelid(0, 1, 280, onDone);       // open even lazier
        }, 60);
      });
    }

    function scheduleNextBlink() {
      // Random interval 2.5s – 6s
      const delay = 2500 + Math.random() * 3500;
      setTimeout(function() {
        const roll = Math.random();
        if (roll < 0.15) {
          // Double blink
          doBlink(function() {
            setTimeout(function() {
              doBlink(scheduleNextBlink);
            }, 90);
          });
        } else if (roll < 0.25) {
          // Slow/lazy blink (Batman attitude)
          doSlowBlink(scheduleNextBlink);
        } else {
          // Normal blink
          doBlink(scheduleNextBlink);
        }
      }, delay);
    }

    // Kick off after a short natural delay
    setTimeout(scheduleNextBlink, 1200);
    // ──────────────────────────────────────────────────────────────

    function animate() {
      currentFactor += (targetFactor - currentFactor) * EASE;

      // Asymmetric clamping: more range looking up than down
      const rawDeg = currentFactor * MAX_ROTATE;
      const deg = Math.max(-3, Math.min(8, rawDeg));
      const offsetY = currentFactor * MAX_OFFSET;

      const transform =
        'rotate(' + deg.toFixed(3) + ',' + PIVOT_X + ',' + PIVOT_Y + ')';

      tracker.setAttribute('transform', transform);
      requestAnimationFrame(animate);
    }

    animate();
  })();
//]]>
</script>
</svg>
