<svg width="570" height="744" viewBox="0 0 570 744" fill="none" xmlns="http://www.w3.org/2000/svg">
<g id="batman-1">
<g id="Batman">
<g id="body">
<path id="left-neck-shoulder-light" d="M216.64 398.691C221.495 378.059 220.281 352.571 220.281 351.358C219.068 357.224 215.548 373.204 211.179 390.195C205.717 411.434 202.683 411.434 189.333 418.716C175.982 425.999 117.726 442.99 78.2818 448.451C46.7263 452.821 12.9458 465.241 0 470.904L20.0256 466.05C38.8375 461.195 49.1537 461.195 97.0937 456.947C145.034 452.699 201.065 460.79 224.529 466.05C216.843 459.374 201.105 445.053 199.649 441.169C197.828 436.315 211.786 419.323 216.64 398.691Z" fill="#353535"/>
<path id="right-neck-shoulder-light" d="M352.571 398.691C347.717 378.059 348.93 352.571 348.93 351.358C350.144 357.224 353.664 373.204 358.033 390.195C363.494 411.434 366.529 411.434 379.879 418.716C393.229 425.999 451.486 442.99 490.93 448.451C522.485 452.821 556.266 465.241 569.212 470.904L549.186 466.05C530.374 461.195 520.058 461.195 472.118 456.947C424.178 452.699 368.147 460.79 344.683 466.05C352.369 459.374 368.106 445.053 369.563 441.169C371.383 436.315 357.426 419.323 352.571 398.691Z" fill="#222222"/>
<g id="bat-logo">
<g id="batlogo-glow" opacity="0.54" filter="url(#filter0_f_34_29)">
<path d="M425.999 508.528C419.526 520.867 404.395 549.672 395.657 566.178C386.918 582.683 384.734 608.252 384.734 618.972C374.822 623.423 350.751 634.75 333.759 644.46C316.768 654.169 293.507 688.152 284 703.93C274.493 688.152 251.23 654.169 234.239 644.46C217.247 634.75 193.176 623.423 183.264 618.972C183.264 608.252 181.08 582.683 172.341 566.178C163.603 549.672 148.472 520.867 142 508.528L220.282 554.041C220.889 572.65 226.593 609.87 244.555 609.87C267.008 609.87 270.649 592.271 270.649 572.246C271.66 575.28 277.689 580.742 284 580.742C290.31 580.742 296.338 575.28 297.349 572.246C297.349 592.271 300.99 609.87 323.443 609.87C341.405 609.87 347.109 572.65 347.716 554.041L425.999 508.528Z" fill="#54DAFF"/>
</g>
<path id="batlogo" d="M425.999 506.708C419.526 519.047 404.395 547.851 395.657 564.357C386.918 580.863 384.734 606.431 384.734 617.152C374.822 621.602 350.751 632.93 333.759 642.639C316.768 652.349 293.507 686.331 284 702.109C274.493 686.331 251.23 652.349 234.239 642.639C217.247 632.93 193.176 621.602 183.264 617.152C183.264 606.431 181.08 580.863 172.341 564.357C163.603 547.851 148.472 519.047 142 506.708L220.282 552.22C220.889 570.83 226.593 608.049 244.555 608.049C267.008 608.049 270.649 590.451 270.649 570.425C271.66 573.46 277.689 578.922 284 578.922C290.31 578.921 296.338 573.46 297.349 570.425C297.349 590.451 300.991 608.049 323.444 608.049C341.406 608.049 347.11 570.83 347.717 552.22L425.999 506.708Z" fill="#33BADF"/>
</g>
</g>
<g id="head">
<path id="nose-light" d="M283.392 302.811V261.546C273.683 263.488 271.66 282.583 271.862 291.888L283.392 302.811Z" fill="#353535"/>
<path id="left-face-light" d="M222.102 281.572C198.314 248.56 180.028 80.5069 174.162 0C169.793 108.259 193.783 270.851 206.324 338.614L258.512 392.016V330.725L251.837 333.76L246.982 300.384L223.315 337.401L218.461 293.708L222.102 281.572Z" fill="#353535"/>
<path id="right-face-light" d="M347.717 281.572C371.505 248.56 389.791 80.5069 395.657 0C400.026 108.259 376.036 270.851 363.494 338.614L311.307 392.016V330.725L317.982 333.76L322.836 300.384L346.503 337.401L351.358 293.708L347.717 281.572Z" fill="#212121"/>
<g id="head-top">
<path id="top-left-light" d="M222.709 163.846L213.606 131.683C236.666 115.906 269.435 110.242 284.606 111.051V137.145C250.138 135.688 228.979 154.339 222.709 163.846Z" fill="#353535"/>
<path id="top-right-light" d="M346.503 163.846L355.606 131.683C332.546 115.906 299.777 110.242 284.606 111.051V137.145C319.074 135.688 340.232 154.339 346.503 163.846Z" fill="#212121"/>
</g>
<g id="eye">
<path id="left-eye" d="M246.982 262.153C252.322 263.609 262.153 256.691 266.401 253.05L212.999 225.136C215.427 241.521 240.307 260.332 246.982 262.153Z" fill="white"/>
<path id="right-eye" d="M322.836 262.153C317.496 263.609 307.666 256.691 303.418 253.05L356.819 225.136C354.392 241.521 329.512 260.332 322.836 262.153Z" fill="white"/>
</g>
</g>
</g>
</g>
<defs>
<filter id="filter0_f_34_29" x="102.798" y="469.327" width="362.402" height="273.805" filterUnits="userSpaceOnUse" color-interpolation-filters="sRGB">
<feFlood flood-opacity="0" result="BackgroundImageFix"/>
<feBlend mode="normal" in="SourceGraphic" in2="BackgroundImageFix" result="shape"/>
<feGaussianBlur stdDeviation="19.6008" result="effect1_foregroundBlur_34_29"/>
</filter>
</defs>
</svg>
